<svg xmlns="http://www.w3.org/2000/svg" width="1240" height="1240"><path d="M578 59.057c-5.775.494-16.575 1.607-24 2.474-231.204 27-422.729 195.351-479.435 421.424C63.107 528.635 58 570.885 58 620c0 28.282.893 43.74 4.014 69.5C79.868 836.839 156.99 972.311 275.5 1064.509c76.185 59.27 168.04 98.258 263.699 111.925 31.555 4.509 40.508 5.066 81.301 5.061 43.58-.005 56.936-1.02 93.5-7.103 160.455-26.697 302.797-123.628 387.515-263.891 43.119-71.388 68.388-147.006 78.028-233.501 2.203-19.763 3.074-73.945 1.529-95.157-4.279-58.756-16.701-114.109-37.555-167.343-40.279-102.824-110.421-191.734-201.834-255.843-66.956-46.956-146.614-79.58-227.403-93.132-32.555-5.461-48.14-6.705-88.28-7.046-20.625-.176-42.225.085-48 .578m-41.006 88.877c-4.44 1.351-8.417 3.815-11.671 7.231-1.748 1.834-45.985 69.935-98.305 151.335l-95.129 148 53.769.259c50.218.241 53.877.142 55.406-1.5 2.002-2.151 156.951-243.383 159.406-248.171 4.355-8.495 2.625-21.112-3.948-28.791-3.419-3.995-34.813-24.85-41.806-27.771-3.803-1.589-13.391-1.909-17.722-.592m148.063.577c-7.391 3.338-36.783 22.907-40.792 27.158-6.696 7.101-8.719 16.195-5.762 25.899.986 3.238 28.899 47.521 81.27 128.932l79.768 124 54.23.259c29.826.142 54.229.054 54.229-.195 0-1.255-190.397-296.528-192.994-299.3-4.866-5.195-10.487-7.547-19.006-7.952-5.291-.252-8.514.101-10.943 1.199M249 590.686c0 3.755 46.11 382.183 47.132 386.814 2.979 13.505 12.44 26.195 23.64 31.709l6.686 3.291 291.492.257c257.113.226 292.103.079 296.67-1.249 11.197-3.255 22.856-15.706 27.301-29.156 1.485-4.494 8.228-57.372 25.058-196.5 12.664-104.694 23.27-191.814 23.569-193.602l.543-3.25H620.045C272.701 589 249 589.108 249 590.686m113 65.996c0 1.855 31.325 261.318 32.605 270.068l.622 4.25h14.887c8.322 0 14.886-.403 14.886-.914 0-3.656-27.123-273.542-27.531-273.951-.287-.287-8.385-.716-17.996-.954-16.757-.415-17.473-.354-17.473 1.501m120.001.068c0 .962 4.05 62.888 9 137.612C495.95 869.085 500 930.398 500 930.612c0 .213 6.75.388 15 .388 14.683 0 15-.045 15-2.151 0-4.599-10.987-255.879-11.569-264.599l-.618-9.25h-17.906c-16.388 0-17.907.148-17.906 1.75m118.971 9c-.062 23.807 3.15 249.319 3.66 257l.548 8.25H635l.023-19.75c.013-10.862.677-70.825 1.477-133.25s1.464-115.638 1.477-118.25L638 655h-37l-.028 10.75M721 655.518c0 3.528-11.06 260.363-11.486 266.732l-.586 8.75h29.928l.571-5.25c.314-2.888 4.389-62.85 9.054-133.25 4.666-70.4 8.732-130.138 9.036-132.75l.552-4.75h-18.535c-10.194 0-18.534.233-18.534.518m120.538 3.732c-.321 2.337-6.41 62.975-13.531 134.75s-13.157 131.962-13.414 133.75l-.467 3.25h14.968c11.087 0 15.076-.324 15.383-1.25.228-.687 7.661-61.325 16.517-134.75s16.355-134.962 16.665-136.75l.564-3.25h-36.1l-.585 4.25" fill="undefined" fill-rule="evenodd"/></svg>