<svg xmlns="http://www.w3.org/2000/svg" width="1240" height="1240"><path d="M174.177 1.63c-37.345 5.778-73.28 22.036-102.364 46.313-35.787 29.871-61.097 72.119-70.25 117.265-1.404 6.921-1.561 53.339-1.547 455 .015 437.242.058 447.496 1.936 456.388 4.861 23.025 16.735 51.162 29.941 70.947 30.774 46.106 76.975 77.121 132.888 89.207l12.719 2.75h885l13-2.8c74.763-16.105 133.425-68.088 156.519-138.7 2.608-7.975 5.323-17.65 6.032-21.5.71-3.85 1.663-7.428 2.12-7.95 1.062-1.217 1.096-898.833.034-898.176-.438.27-1.384-2.741-2.102-6.691-.718-3.951-3.448-13.708-6.066-21.683-10.547-32.127-29.383-61.936-53.65-84.902C1149.485 29.745 1116.21 12.266 1076 3.313L1063.5.53l-440-.171C244.549.211 182.206.387 174.177 1.63m355.04 163.043c-2.355.834-6.495 3.611-9.199 6.171-3.577 3.388-32.583 47.145-106.494 160.656l-101.577 156 57.732.258c45.37.203 57.983-.011 58.902-1 1.817-1.956 168.927-258.818 170.917-262.713.971-1.9 1.988-6.226 2.259-9.613.693-8.633-1.714-15.384-7.631-21.398-5.071-5.155-37.91-26.341-44.35-28.613-5.15-1.817-15.054-1.696-20.559.252m160.167.24c-4.43 2.012-31.868 19.186-39.578 24.773-6.793 4.923-10.806 13.281-10.806 22.506 0 3.78.636 8.394 1.413 10.253 1.522 3.643 168.762 260.892 171.507 263.813 1.545 1.644 5.391 1.742 59.245 1.5l57.592-.258L827.438 332c-55.726-85.525-102.765-157.239-104.532-159.365-4.873-5.864-13.672-9.639-22.406-9.612-4.663.014-8.374.645-11.116 1.89M.496 620c0 247.225.114 348.362.254 224.75.14-123.613.14-325.888 0-449.5C.61 271.637.496 372.775.496 620M223 630.619c0 2.663 48.973 400.373 50.102 406.881 2.431 14.01 13.037 29.044 25.106 35.588l6.292 3.412h631l6.292-3.412c10.58-5.736 19.244-16.517 23.577-29.334 1.28-3.785 51.631-406.677 51.631-413.131 0-1.495-31.365-1.623-397-1.623-365.189 0-397 .13-397 1.619m121 69.96c0 2.501 35.034 287.718 35.52 289.171.311.931 4.517 1.25 16.468 1.25h16.05l-.469-2.25c-.258-1.237-6.872-66.6-14.696-145.25-7.825-78.65-14.26-143.052-14.3-143.115-.04-.063-8.736-.422-19.323-.798-17.611-.625-19.25-.54-19.25.992m128.714-.829c-.288.534 12.917 199.984 19.234 290.5.028.413 7.252.75 16.052.75h16l-.031-2.75c-.152-13.561-12.887-287.309-13.405-288.146-.78-1.263-37.177-1.603-37.85-.354m127.312 21c.02 16.069 3.698 268.45 3.936 270 .021.138 7.238.25 16.038.25h16l.022-7.25c.012-3.987.677-58.1 1.477-120.25s1.465-124.587 1.478-138.75L639 699h-39l.026 21.75m128.521-20.5c-.32 1.026-12.678 285.454-12.578 289.5.024.947 3.914 1.25 16.031 1.25h16l.048-3.25c.027-1.788 4.458-67.15 9.847-145.25 5.389-78.1 9.616-142.337 9.393-142.75-.223-.413-8.944-.75-19.378-.75-14.304 0-19.069.308-19.363 1.25m129.006 2c-.295 1.788-6.829 65.8-14.519 142.25-7.691 76.45-14.225 140.688-14.52 142.75l-.538 3.75h16.044c11.944 0 16.15-.319 16.462-1.25.499-1.487 35.525-286.46 35.521-289-.003-1.605-1.573-1.75-18.958-1.75h-18.954l-.538 3.25" fill="undefined" fill-rule="evenodd"/></svg>